<svg width="23" height="21" viewBox="0 0 23 21" fill="none" xmlns="http://www.w3.org/2000/svg">
<path d="M11.0395 14.0686C10.8417 14.0686 10.6484 14.1273 10.4839 14.2372C10.3195 14.347 10.1913 14.5032 10.1156 14.6859C10.04 14.8687 10.0201 15.0697 10.0587 15.2637C10.0973 15.4577 10.1926 15.6359 10.3324 15.7757C10.4723 15.9156 10.6504 16.0108 10.8444 16.0494C11.0384 16.088 11.2395 16.0682 11.4222 15.9925C11.6049 15.9168 11.7611 15.7887 11.871 15.6242C11.9809 15.4598 12.0395 15.2664 12.0395 15.0686C12.0395 14.8034 11.9342 14.5491 11.7466 14.3615C11.5591 14.174 11.3047 14.0686 11.0395 14.0686ZM21.7095 15.5386L13.6595 1.53863C13.3993 1.07215 13.0193 0.683589 12.5587 0.4131C12.0981 0.142611 11.5737 0 11.0395 0C10.5054 0 9.98092 0.142611 9.52033 0.4131C9.05973 0.683589 8.67971 1.07215 8.41952 1.53863L0.419518 15.5386C0.150314 15.9926 0.0056609 16.5097 0.000162801 17.0375C-0.0053353 17.5652 0.128516 18.0852 0.388204 18.5447C0.647892 19.0042 1.02422 19.3871 1.4792 19.6547C1.93418 19.9222 2.4517 20.065 2.97952 20.0686H19.0995C19.6316 20.0739 20.1554 19.9375 20.6174 19.6735C21.0794 19.4096 21.4629 19.0275 21.7285 18.5665C21.9941 18.1054 22.1324 17.582 22.129 17.05C22.1257 16.5179 21.9809 15.9963 21.7095 15.5386ZM19.9795 17.5386C19.8919 17.6946 19.764 17.8242 19.6092 17.9139C19.4544 18.0036 19.2784 18.0501 19.0995 18.0486H2.97952C2.80063 18.0501 2.62462 18.0036 2.46984 17.9139C2.31505 17.8242 2.18717 17.6946 2.09952 17.5386C2.01175 17.3866 1.96554 17.2142 1.96554 17.0386C1.96554 16.8631 2.01175 16.6906 2.09952 16.5386L10.0995 2.53863C10.1834 2.37483 10.3109 2.23736 10.468 2.14137C10.625 2.04538 10.8055 1.99459 10.9895 1.99459C11.1736 1.99459 11.354 2.04538 11.5111 2.14137C11.6681 2.23736 11.7956 2.37483 11.8795 2.53863L19.9295 16.5386C20.0287 16.6885 20.0857 16.8623 20.0945 17.0418C20.1033 17.2213 20.0636 17.3998 19.9795 17.5586V17.5386ZM11.0395 6.06863C10.7743 6.06863 10.5199 6.17399 10.3324 6.36152C10.1449 6.54906 10.0395 6.80341 10.0395 7.06863V11.0686C10.0395 11.3338 10.1449 11.5882 10.3324 11.7757C10.5199 11.9633 10.7743 12.0686 11.0395 12.0686C11.3047 12.0686 11.5591 11.9633 11.7466 11.7757C11.9342 11.5882 12.0395 11.3338 12.0395 11.0686V7.06863C12.0395 6.80341 11.9342 6.54906 11.7466 6.36152C11.5591 6.17399 11.3047 6.06863 11.0395 6.06863Z" fill="black"/>
</svg>
