<svg width="12" height="12" viewBox="0 0 12 12" fill="none" xmlns="http://www.w3.org/2000/svg">
<path d="M11.9258 0.62C11.8243 0.375651 11.6301 0.181475 11.3858 0.0799999C11.2656 0.028759 11.1365 0.00157999 11.0058 0H1.0058C0.740582 0 0.486228 0.105357 0.298692 0.292893C0.111155 0.48043 0.00579834 0.734784 0.00579834 1C0.00579834 1.26522 0.111155 1.51957 0.298692 1.70711C0.486228 1.89464 0.740582 2 1.0058 2H8.5958L0.295798 10.29C0.20207 10.383 0.127676 10.4936 0.0769072 10.6154C0.0261385 10.7373 0 10.868 0 11C0 11.132 0.0261385 11.2627 0.0769072 11.3846C0.127676 11.5064 0.20207 11.617 0.295798 11.71C0.388761 11.8037 0.499362 11.8781 0.621222 11.9289C0.743081 11.9797 0.873786 12.0058 1.0058 12.0058C1.13781 12.0058 1.26852 11.9797 1.39038 11.9289C1.51223 11.8781 1.62284 11.8037 1.7158 11.71L10.0058 3.41V11C10.0058 11.2652 10.1112 11.5196 10.2987 11.7071C10.4862 11.8946 10.7406 12 11.0058 12C11.271 12 11.5254 11.8946 11.7129 11.7071C11.9004 11.5196 12.0058 11.2652 12.0058 11V1C12.0042 0.869323 11.977 0.740222 11.9258 0.62Z" fill="black"/>
</svg>
